<?xml version="1.0" encoding="utf-8"?>
<!-- Generator: Adobe Illustrator 25.0.0, SVG Export Plug-In . SVG Version: 6.00 Build 0)  -->
<svg version="1.1" id="Layer_1" fill="white" xmlns="http://www.w3.org/2000/svg" xmlns:xlink="http://www.w3.org/1999/xlink" x="0px" y="0px"
	 viewBox="0 0 700 700" style="enable-background:new 0 0 700 700;" xml:space="preserve">
<g>
	<path d="M675.9,155.9c-6.6-7.3-16.1-11-25.6-11H177.2c-3.7-16.8-18.3-29.3-35.9-29.3h-12.4c-2.9-8.8-11-14.6-20.5-14.6H35.1
		c-12.4,0-22,9.5-22,22v29.3c0,12.4,9.5,22,22,22h73.2c9.5,0,17.6-5.9,20.5-14.6h2.9c3.7,0,6.6,2.9,7.3,6.6l47.6,318.6
		c1.5,11,11,19,22,19h27.1l11.7,18.3c-8.8,8.1-14.6,19.8-14.6,33c0,24.2,19.8,43.9,43.9,43.9s43.9-19.8,43.9-43.9
		c0-13.2-5.9-24.9-14.6-33l11.7-18.3h197l11.7,18.3c-8.8,8.1-14.6,19.8-14.6,33c0,24.2,19.8,43.9,43.9,43.9
		c24.2,0,43.9-19.8,43.9-43.9c0-13.2-5.9-24.9-14.6-33l11.7-18.3h9.5c12.4,0,22-9.5,22-22s-9.5-22-22-22H276.8l382.3-97.4
		c16.1-4.4,27.8-19,27.8-35.9v-145C686.9,172,683.2,162.5,675.9,155.9L675.9,155.9z M650.3,159.6c5.9,0,11.7,2.2,15.4,6.6
		c4.4,4.4,6.6,9.5,6.6,15.4v66.6L525,263.6l-13.2-104L650.3,159.6z M202.8,312.6l145-15.4l16.8,125.2l-139.9,35.9L202.8,312.6z
		 M180.1,159.6h149.4l16.8,123l-145,15.4L180.1,159.6z M362.4,295.8l150.1-16.1L525,381.5l-146.5,37.3L362.4,295.8z M360.2,281.2
		l-16.8-121.6h153.8L510.4,265L360.2,281.2z M108.3,159.6H35.1c-4.4,0-7.3-2.9-7.3-7.3V123c0-4.4,2.9-7.3,7.3-7.3h73.2
		c4.4,0,7.3,2.9,7.3,7.3v29.3C115.6,156.7,112.7,159.6,108.3,159.6z M306.1,555.1c0,16.1-13.2,29.3-29.3,29.3
		c-16.1,0-29.3-13.2-29.3-29.3c0-8.1,2.9-14.6,8.1-19.8l14.6,24.2c1.5,2.2,3.7,3.7,5.9,3.7c2.2,0,5.1-1.5,5.9-3.7l14.6-24.2
		C303.1,540.4,306.1,547,306.1,555.1L306.1,555.1z M268,527.2c2.9-0.7,5.9-1.5,8.8-1.5c2.9,0,5.9,0.7,8.8,1.5l-8.8,13.9L268,527.2z
		 M293.6,514.8c-5.1-2.2-11-3.7-16.8-3.7s-11.7,1.5-16.8,3.7l-6.6-11h46.9L293.6,514.8z M584.3,555.1c0,16.1-13.2,29.3-29.3,29.3
		c-16.1,0-29.3-13.2-29.3-29.3c0-8.1,2.9-14.6,8.1-19.8l14.6,24.2c1.5,2.2,3.7,3.7,5.9,3.7s5.1-1.5,5.9-3.7l14.6-24.2
		C581.4,540.4,584.4,547,584.3,555.1L584.3,555.1z M546.3,527.2c2.9-0.7,5.9-1.5,8.8-1.5s5.9,0.7,8.8,1.5l-8.8,13.9L546.3,527.2z
		 M571.9,514.8c-5.1-2.2-11-3.7-16.8-3.7c-5.9,0-11.7,1.5-16.8,3.7l-6.6-11h46.9L571.9,514.8z M613.6,481.8c0,4.4-2.9,7.3-7.3,7.3
		l-396.9,0c-3.7,0-6.6-2.9-7.3-6.6L154.5,164c-1.5-11-11-19-22-19h-2.2v-14.6h11c11,0,20.5,8.1,22,19l47.6,318.6v0.7
		c0,0,0,0.7,0.7,0.7c0,0,0,0.7,0.7,0.7c0,0.7,0.7,0.7,0.7,1.5l0.7,0.7c0.7,0,0.7,0.7,1.5,0.7c0,0,0.7,0,0.7,0.7
		c0.7,0,1.5,0.7,2.2,0.7h388.1C610.7,474.5,613.6,477.4,613.6,481.8L613.6,481.8z M655.4,348.5l-116.4,29.3l-12.4-99.6l145.7-15.4
		v64.4C672.2,336.8,665.6,345.6,655.4,348.5L655.4,348.5z"/>
</g>
</svg>
